<svg width="72" height="72" viewBox="0 0 72 72" fill="none" xmlns="http://www.w3.org/2000/svg">
<rect x="2" y="2" width="68" height="68" rx="6" stroke="#3FC500" stroke-width="4"/>
<path d="M24.2728 51V19.0078H34.1165C36.929 19.0078 39.4412 19.645 41.6531 20.9194C43.8797 22.1792 45.6155 23.981 46.8606 26.3247C48.1058 28.6538 48.7283 31.3052 48.7283 34.2788V35.751C48.7283 38.7246 48.1131 41.3687 46.8826 43.6831C45.6668 45.9976 43.9456 47.792 41.719 49.0664C39.4925 50.3408 36.9803 50.9854 34.1824 51H24.2728ZM30.8645 24.3472L30.8645 45.7046H34.0506C36.6287 45.7046 38.5989 44.8623 39.9612 43.1777C41.3235 41.4932 42.0193 39.0835 42.0486 35.9487V34.2568C42.0486 31.0049 41.3748 28.5439 40.0271 26.874C38.6795 25.1895 36.7093 24.3472 34.1165 24.3472H30.8645Z" fill="#3FC500"/>
</svg>
