<svg width="72" height="72" viewBox="0 0 72 72" fill="none" xmlns="http://www.w3.org/2000/svg">
<rect x="2" y="2" width="68" height="68" rx="6" stroke="#E36D18" stroke-width="4"/>
<path d="M30.9744 39.728L30.9744 51H24.3826V19.0078H36.8631C39.2654 19.0078 41.3748 19.4473 43.1912 20.3262C45.0223 21.2051 46.4285 22.4575 47.41 24.0835C48.3914 25.6948 48.8821 27.5332 48.8821 29.5986C48.8821 32.7334 47.8055 35.209 45.6521 37.0254C43.5135 38.8271 40.5472 39.728 36.7532 39.728H30.9744ZM30.9744 34.3887H36.8631C38.6062 34.3887 39.9319 33.9785 40.8401 33.1582C41.763 32.3379 42.2244 31.166 42.2244 29.6426C42.2244 28.0752 41.763 26.8081 40.8401 25.8413C39.9173 24.8745 38.6429 24.3765 37.0169 24.3472H30.9744V34.3887Z" fill="#E36D18"/>
</svg>
