<svg width="72" height="72" viewBox="0 0 72 72" fill="none" xmlns="http://www.w3.org/2000/svg">
<rect x="2" y="2" width="68" height="68" rx="6" stroke="#FFC700" stroke-width="4"/>
<path d="M36.3797 39.2886H31.1282L31.1282 51H24.5364V19.0078H36.4236C40.2029 19.0078 43.118 19.8501 45.1687 21.5347C47.2195 23.2192 48.2449 25.5996 48.2449 28.6758C48.2449 30.8584 47.7688 32.6821 46.8167 34.147C45.8792 35.5972 44.451 36.7544 42.532 37.6187L49.4534 50.6924V51H42.3782L36.3797 39.2886ZM31.1282 33.9492H36.4456C38.1009 33.9492 39.3826 33.5317 40.2908 32.6968C41.199 31.8472 41.6531 30.6826 41.6531 29.2031C41.6531 27.6943 41.221 26.5078 40.3567 25.6436C39.5071 24.7793 38.1961 24.3472 36.4236 24.3472H31.1282V33.9492Z" fill="#FFC700"/>
</svg>
